# xmcd CD database file
#
# Track frame offsets:
#	150
#	900
#	1650
#	2400
#	3150
#	3900
#	4650
#	5400
#	6150
#	6900
#	7650
#	8400
#	249737
#
# Disc length: 4440 seconds
#
# Revision: 0
# Processed by: cddbd v1.5.1PL0 Copyright (c) Steve Scherf et al.
# Submitted via: CDex 1.51
#
DISCID=5911560d
DTITLE=day after tomorrow - day alone
DYEAR=2005
DGENRE=Pop
TTITLE0=君と逢えた奇跡
TTITLE1=God bless me!
TTITLE2=せつなさはこの胸の中に
TTITLE3=七つ星を数えたら
TTITLE4=lost angel
TTITLE5=Where so over
TTITLE6=honestly
TTITLE7=追伸
TTITLE8=ユリノハナ
TTITLE9=瞑想
TTITLE10=そして僕にできること
TTITLE11=more than a million miles
TTITLE12=bonous track
EXTD=YEAR: 2005
EXTT0=
EXTT1=
EXTT2=
EXTT3=
EXTT4=
EXTT5=
EXTT6=
EXTT7=
EXTT8=
EXTT9=
EXTT10=
EXTT11=
EXTT12=
PLAYORDER=
